<?xml version="1.0" encoding="UTF-8"?>
<svg width="100pt" height="100pt" version="1.1" viewBox="0 0 100 100" xmlns="http://www.w3.org/2000/svg">
 <g>
  <path d="m50 8.0781-6.5391 5h13.078z"/>
  <path d="m50 46.152c2.3086-0.19141 4.0391-2.1172 4.0391-4.4219 0-0.76953-0.19141-1.5391-0.57812-2.1172z"/>
  <path d="m84.617 35.191v9.8086l6.3438-4.8086z"/>
  <path d="m49.809 37.309c-2.5 0-4.4219 1.9219-4.4219 4.4219 0 1.1523 0.38281 2.1172 1.1523 2.8828l3.8477-7.3086c-0.19531 0.003906-0.38672 0.003906-0.57812 0.003906z"/>
  <path d="m7.6914 44.039v45.961l29.426-23.078z"/>
  <path d="m50 77.117-9.8086-7.6953-28.844 22.5h77.305l-28.844-22.5z"/>
  <path d="m62.883 66.922 29.426 23.078v-45.961z"/>
  <path d="m55.578 35.578-0.19141 0.19141c1.5391 1.5391 2.5 3.6523 2.5 5.9609 0 1.9219-0.76953 3.8477-1.9219 5.1914 1.5391-0.76953 2.8828-1.7305 4.0391-2.8828l2.5-2.5-3.4609-3.4609c-0.96484-1.1562-2.1211-1.9258-3.4648-2.5z"/>
  <path d="m80.77 48.078v-31.156h-61.539v31.156l30.77 24.039zm-33.848 3.8438-2.8828 5.3828-3.4609-1.7305 2.5-4.6172c-2.5-0.95703-4.6172-2.3047-6.5391-4.2266l-5.1914-5.1914 6.3477-6.3477c3.2695-3.2695 7.5-5 12.117-5 1.3477 0 2.6914 0.19141 4.0391 0.57812l3.0781-5.7695 3.4609 1.7305-2.8828 5.1914c1.5391 0.76953 3.0781 1.9219 4.4219 3.0781l6.3477 6.3477-5.1914 5.1914c-3.4609 3.4609-8.2695 5.3828-13.078 5.3828-1.1602 0.38672-2.125 0.19531-3.0859 0z"/>
  <path d="m15.383 35.191-6.3438 5 6.3438 4.8086z"/>
  <path d="m36.73 41.539 2.5 2.5c1.1523 1.1523 2.5 2.1172 4.0391 2.8828-1.1523-1.3477-1.9219-3.2695-1.9219-5.1914 0-2.6914 1.3477-5 3.2695-6.5391-1.5391 0.57812-3.0781 1.7305-4.4219 2.8828z"/>
 </g>
</svg>